<?xml version="1.0" encoding="utf-8"?>
<!-- Generator: Adobe Illustrator 25.2.0, SVG Export Plug-In . SVG Version: 6.00 Build 0)  -->
<svg version="1.1" id="Ebene_1" xmlns="http://www.w3.org/2000/svg" xmlns:xlink="http://www.w3.org/1999/xlink" x="0px" y="0px"
	 viewBox="0 0 197.8 179.2" width="100%" height="100%" style="enable-background:new 0 0 197.8 179.2;" xml:space="preserve">
<style type="text/css">
	.st0{fill:#0C1F37;}
</style>
<g id="Final_Logo">
	<path class="st0" d="M102.7,89.6c0-30.9,23.7-51.8,54.3-51.8c17.4,0,29.1,6.3,36.9,14.8c2.4,2.7,3.8,6.1,3.9,9.8
		c-0.1,7.9-6.5,14.3-14.4,14.2c-4.1,0-8-1.7-10.6-4.8c-3.9-4.6-9.7-7.3-15.7-7.3c-13.8,0-23.6,11.1-23.6,25s9.8,25,23.6,25
		c6.1,0,11.8-2.7,15.8-7.3c2.7-3.1,6.6-4.8,10.6-4.8c7.8-0.1,14.2,6.2,14.2,14c0,3.6-1.3,7.1-3.7,9.7c-8,8.6-19.6,15.2-36.9,15.2
		C126.4,141.4,102.7,120.4,102.7,89.6z"/>
	<path class="st0" d="M0,89.6c0-30.9,23.7-51.8,54.3-51.8c17.4,0,29.1,6.3,36.9,14.8c2.4,2.7,3.8,6.1,3.9,9.8
		c-0.1,7.9-6.5,14.3-14.4,14.2c-4.1,0-8-1.7-10.7-4.8c-3.9-4.6-9.7-7.3-15.7-7.3c-13.8,0-23.5,11.1-23.5,25s9.8,25,23.5,25
		c6.1,0,11.8-2.7,15.8-7.3c2.7-3.1,6.6-4.8,10.7-4.8c7.8-0.1,14.2,6.2,14.2,14c0,3.6-1.3,7.1-3.7,9.7c-8,8.6-19.7,15.2-36.9,15.2
		C23.7,141.4,0,120.4,0,89.6z"/>
	<path id="Line_Top" class="st0" d="M22.7,0h156.1c8.4,0,15.1,6.8,15.1,15.2c0,8.4-6.8,15.1-15.1,15.1H22.7
		c-8.4,0-15.1-6.8-15.1-15.2C7.6,6.8,14.4,0,22.7,0z"/>
	<path id="Line_Bottom" class="st0" d="M22.8,148.9h156.1c8.4,0,15.2,6.8,15.2,15.1c0,8.4-6.8,15.2-15.2,15.2H22.8
		c-8.4,0-15.2-6.8-15.2-15.2C7.7,155.7,14.5,148.9,22.8,148.9z"/>
</g>
</svg>
