<?xml version="1.0" encoding="utf-8"?>
<!-- Generator: Adobe Illustrator 25.2.0, SVG Export Plug-In . SVG Version: 6.00 Build 0)  -->
<svg version="1.1" id="Ebene_1" xmlns="http://www.w3.org/2000/svg" xmlns:xlink="http://www.w3.org/1999/xlink" x="0px" y="0px"
	 viewBox="0 0 578.4 290.3" style="enable-background:new 0 0 578.4 290.3;" xml:space="preserve">
<style type="text/css">
	.st0{fill:#0C1F37;}
</style>
<g id="Final_Logo">
	<g id="CALC">
		<path class="st0" d="M0,200.7c0-30.9,23.7-51.8,54.3-51.8c17.4,0,29.1,6.3,36.9,14.9c2.4,2.7,3.8,6.1,3.9,9.8
			c-0.1,7.9-6.5,14.3-14.4,14.2c-4.1,0-8-1.7-10.6-4.8c-3.9-4.6-9.7-7.3-15.8-7.4c-13.8,0-23.5,11.1-23.5,25.1s9.8,25.1,23.5,25.1
			c6.1,0,11.8-2.7,15.8-7.4c2.7-3.1,6.6-4.8,10.7-4.8c7.8-0.1,14.2,6.2,14.2,14c0,3.6-1.3,7.1-3.7,9.7c-8,8.6-19.7,15.1-36.9,15.1
			C23.7,252.4,0,231.4,0,200.7z"/>
		<path class="st0" d="M198.6,237c0,8.4-6.8,15.2-15.2,15.2c-6.7,0-12.6-4.4-14.5-10.8l-1.6-5.4h-37.2l-1.6,5.4
			c-2.4,8-10.9,12.6-18.9,10.2c-6.4-1.9-10.8-7.8-10.8-14.5c0-1.8,0.3-3.6,0.9-5.2l24.2-65.4c5.2-13.8,20.5-20.7,34.3-15.5
			c7.2,2.7,12.8,8.4,15.5,15.5l24.1,65.4C198.3,233.4,198.6,235.2,198.6,237z M159.3,210.8l-10.6-33.4L138,210.7L159.3,210.8z"/>
		<path class="st0" d="M206.2,234.6v-70.3c0-8.4,6.8-15.2,15.2-15.2c8.4,0,15.1,6.8,15.1,15.2v60h26.2c7.3,0,13.2,5.9,13.2,13.2
			c0,7.3-5.9,13.2-13.2,13.2c0,0,0,0,0,0h-40.5C211.9,250.6,206.2,244.9,206.2,234.6z"/>
		<path class="st0" d="M272.2,200.7c0-30.9,23.7-51.8,54.3-51.8c17.4,0,29.1,6.3,36.9,14.9c2.4,2.7,3.8,6.1,3.9,9.8
			c-0.1,7.9-6.5,14.3-14.4,14.2c-4.1,0-8-1.7-10.6-4.8c-3.9-4.6-9.7-7.3-15.8-7.4c-13.8,0-23.5,11.1-23.5,25.1s9.8,25.1,23.5,25.1
			c6.1,0,11.8-2.7,15.8-7.4c2.7-3.1,6.6-4.8,10.6-4.8c7.8-0.1,14.2,6.2,14.2,14c0,3.6-1.3,7.1-3.7,9.7c-8,8.6-19.6,15.1-36.9,15.1
			C295.9,252.4,272.2,231.4,272.2,200.7z"/>
	</g>
	<g id="CINEMA">
		<path class="st0" d="M0,89.6c0-30.9,23.7-51.8,54.3-51.8c17.4,0,29.1,6.3,36.9,14.8c2.4,2.7,3.8,6.1,3.9,9.8
			c-0.1,7.9-6.5,14.3-14.4,14.2c-4.1,0-8-1.7-10.7-4.8c-3.9-4.6-9.7-7.3-15.7-7.3c-13.8,0-23.5,11.1-23.5,25s9.8,25,23.5,25
			c6.1,0,11.8-2.7,15.8-7.3c2.7-3.1,6.6-4.8,10.7-4.8c7.8-0.1,14.2,6.2,14.2,14c0,3.6-1.3,7.1-3.7,9.7c-8,8.6-19.7,15.2-36.9,15.2
			C23.7,141.4,0,120.4,0,89.6z"/>
		<path class="st0" d="M106.5,125.9V53.2c0-8.4,6.8-15.2,15.1-15.2s15.2,6.8,15.2,15.1c0,0,0,0,0,0v72.8c0,8.4-6.8,15.2-15.2,15.2
			S106.5,134.3,106.5,125.9z"/>
		<path class="st0" d="M214.6,133.1l-32.4-47.2v40c0.2,8.4-6.4,15.3-14.8,15.5s-15.3-6.4-15.5-14.8c0-0.3,0-0.5,0-0.8V57.8
			c0-10.9,8.9-19.8,19.8-19.8c6.5,0,12.6,3.2,16.2,8.5l30,43.3V53.2c0-8.4,6.8-15.2,15.1-15.2c8.4,0,15.2,6.8,15.2,15.2v69.6
			c-0.1,10.2-8.4,18.4-18.6,18.3C223.6,141,218,138.1,214.6,133.1L214.6,133.1z"/>
		<path class="st0" d="M263.4,123.5V55.6c0-10.3,5.7-16,16-16h48.8c7,0,12.6,5.6,12.6,12.6s-5.6,12.6-12.6,12.6h-34.5v11.7h33.5
			c7,0,12.6,5.6,12.6,12.6c0,7-5.6,12.6-12.6,12.6h-33.5v12.8h34.5c7,0,12.6,5.6,12.6,12.6c0,7-5.6,12.6-12.6,12.6c0,0,0,0,0,0
			h-48.8C269,139.6,263.4,133.9,263.4,123.5z"/>
		<path class="st0" d="M440.6,125.9V76.4l-20.9,58.8c-1.6,4.6-6.6,7-11.1,5.4c-2.5-0.9-4.5-2.9-5.4-5.4l-20.9-58.8v49.5
			c0,8.4-6.8,15.1-15.2,15.1c-8.4,0-15.1-6.8-15.1-15.1V62.2c0-13.3,10.8-24.2,24.1-24.2c10.3,0,19.4,6.5,22.8,16.2l12.5,36.3
			L424,54.2c4.4-12.6,18.1-19.2,30.7-14.9c9.7,3.4,16.2,12.6,16.2,22.9V126c0.2,8.4-6.4,15.3-14.8,15.5c-8.4,0.2-15.3-6.4-15.5-14.8
			C440.6,126.5,440.6,126.2,440.6,125.9L440.6,125.9z"/>
		<path class="st0" d="M578.4,125.9c0,8.4-6.8,15.2-15.2,15.2c-6.7,0-12.6-4.4-14.5-10.8l-1.7-5.4h-37.2l-1.6,5.4
			c-2.4,8-10.9,12.6-18.9,10.2c-6.4-1.9-10.8-7.8-10.8-14.5c0-1.8,0.3-3.6,0.9-5.2l24.1-65.4c5.2-13.8,20.5-20.7,34.3-15.5
			c7.2,2.7,12.8,8.4,15.5,15.5l24.2,65.4C578.1,122.4,578.4,124.1,578.4,125.9z M539.1,99.7l-10.7-33.4l-10.6,33.4H539.1z"/>
	</g>
	<path id="Line_Top" class="st0" d="M18.9,0h540.5c8.4,0,15.1,6.8,15.1,15.2c0,8.4-6.8,15.1-15.1,15.1H18.9
		c-8.4,0-15.1-6.8-15.1-15.2C3.8,6.8,10.6,0,18.9,0z"/>
	<path id="Line_Bottom" class="st0" d="M18.9,260h540.5c8.4-0.2,15.3,6.4,15.5,14.8c0.2,8.4-6.4,15.3-14.8,15.5c-0.3,0-0.5,0-0.8,0
		H18.9c-8.4,0.2-15.3-6.4-15.5-14.8s6.4-15.3,14.8-15.5C18.4,260,18.7,260,18.9,260z"/>
</g>
</svg>
